<?xml version="1.0" encoding="UTF-8" standalone="no"?>
<!DOCTYPE svg PUBLIC "-//W3C//DTD SVG 1.1//EN"
 "http://www.w3.org/Graphics/SVG/1.1/DTD/svg11.dtd">
<!-- Generated by graphviz version 2.26.3 (20100126.1600)
 -->
<!-- Title: xDuck Pages: 1 -->
<svg width="1143pt" height="596pt"
 viewBox="0.00 0.00 1143.00 596.00" xmlns="http://www.w3.org/2000/svg" xmlns:xlink="http://www.w3.org/1999/xlink">
<g id="graph1" class="graph" transform="scale(1 1) rotate(0) translate(4 592)">
<title>xDuck</title>
<polygon fill="white" stroke="white" points="-4,5 -4,-592 1140,-592 1140,5 -4,5"/>
<!-- stock -->
<g id="node2" class="node"><title>stock</title>
<ellipse fill="lightgrey" stroke="black" cx="234" cy="-459" rx="36.977" ry="18.3848"/>
<text text-anchor="middle" x="234" y="-455.4" font-family="Times Roman,serif" font-size="14.00">stock</text>
</g>
<!-- places -->
<g id="node38" class="node"><title>places</title>
<ellipse fill="lightgrey" stroke="black" cx="215" cy="-349" rx="41.2167" ry="18.3848"/>
<text text-anchor="middle" x="215" y="-345.4" font-family="Times Roman,serif" font-size="14.00">places</text>
</g>
<!-- stock&#45;&gt;places -->
<g id="edge61" class="edge"><title>stock&#45;&gt;places</title>
<path fill="none" stroke="black" d="M230.777,-440.34C227.815,-423.194 223.381,-397.519 219.966,-377.753"/>
<polygon fill="black" stroke="black" points="223.39,-377.01 218.239,-367.752 216.492,-378.201 223.39,-377.01"/>
</g>
<!-- goods -->
<g id="node41" class="node"><title>goods</title>
<ellipse fill="lightgrey" stroke="black" cx="79" cy="-349" rx="39.0967" ry="18.3848"/>
<text text-anchor="middle" x="79" y="-345.4" font-family="Times Roman,serif" font-size="14.00">goods</text>
</g>
<!-- stock&#45;&gt;goods -->
<g id="edge63" class="edge"><title>stock&#45;&gt;goods</title>
<path fill="none" stroke="black" d="M212.448,-443.705C185.647,-424.685 139.731,-392.099 109.371,-370.554"/>
<polygon fill="black" stroke="black" points="111.049,-367.453 100.869,-364.52 106.998,-373.162 111.049,-367.453"/>
</g>
<!-- users -->
<g id="node3" class="node"><title>users</title>
<ellipse fill="lightgrey" stroke="black" cx="513" cy="-459" rx="36.977" ry="18.3848"/>
<text text-anchor="middle" x="513" y="-455.4" font-family="Times Roman,serif" font-size="14.00">users</text>
</g>
<!-- contacts -->
<g id="node34" class="node"><title>contacts</title>
<ellipse fill="lightgrey" stroke="black" cx="570" cy="-349" rx="51.8276" ry="18.3848"/>
<text text-anchor="middle" x="570" y="-345.4" font-family="Times Roman,serif" font-size="14.00">contacts</text>
</g>
<!-- users&#45;&gt;contacts -->
<g id="edge69" class="edge"><title>users&#45;&gt;contacts</title>
<path fill="none" stroke="black" d="M522.412,-440.836C531.475,-423.346 545.303,-396.66 555.722,-376.554"/>
<polygon fill="black" stroke="black" points="558.89,-378.048 560.383,-367.559 552.675,-374.827 558.89,-378.048"/>
</g>
<!-- ACLs -->
<g id="node59" class="node"><title>ACLs</title>
<ellipse fill="lightgrey" stroke="black" cx="676" cy="-349" rx="36.0624" ry="18.3848"/>
<text text-anchor="middle" x="676" y="-345.4" font-family="Times Roman,serif" font-size="14.00">ACLs</text>
</g>
<!-- users&#45;&gt;ACLs -->
<g id="edge67" class="edge"><title>users&#45;&gt;ACLs</title>
<path fill="none" stroke="black" d="M535.323,-443.936C563.854,-424.681 613.38,-391.259 645.409,-369.644"/>
<polygon fill="black" stroke="black" points="647.616,-372.378 653.947,-363.882 643.7,-366.575 647.616,-372.378"/>
</g>
<!-- orders -->
<g id="node4" class="node"><title>orders</title>
<ellipse fill="lightgrey" stroke="black" cx="610" cy="-459" rx="41.9273" ry="18.3848"/>
<text text-anchor="middle" x="610" y="-455.4" font-family="Times Roman,serif" font-size="14.00">orders</text>
</g>
<!-- activities -->
<g id="node15" class="node"><title>activities</title>
<ellipse fill="lightgrey" stroke="black" cx="785" cy="-349" rx="55.1543" ry="18.3848"/>
<text text-anchor="middle" x="785" y="-345.4" font-family="Times Roman,serif" font-size="14.00">activities</text>
</g>
<!-- orders&#45;&gt;activities -->
<g id="edge49" class="edge"><title>orders&#45;&gt;activities</title>
<path fill="none" stroke="black" d="M634.333,-443.705C664.421,-424.792 715.846,-392.468 750.126,-370.921"/>
<polygon fill="black" stroke="black" points="752.274,-373.705 758.878,-365.42 748.549,-367.778 752.274,-373.705"/>
</g>
<!-- log -->
<g id="node5" class="node"><title>log</title>
<ellipse fill="lightgrey" stroke="black" cx="697" cy="-459" rx="27" ry="18.3848"/>
<text text-anchor="middle" x="697" y="-455.4" font-family="Times Roman,serif" font-size="14.00">log</text>
</g>
<!-- customers -->
<g id="node6" class="node"><title>customers</title>
<ellipse fill="lightgrey" stroke="black" cx="397" cy="-459" rx="61.0181" ry="18.3848"/>
<text text-anchor="middle" x="397" y="-455.4" font-family="Times Roman,serif" font-size="14.00">customers</text>
</g>
<!-- customers&#45;&gt;orders -->
<g id="edge39" class="edge"><title>customers&#45;&gt;orders</title>
<path fill="none" stroke="black" d="M415.328,-476.691C430.299,-489.833 452.72,-506.694 476,-514 507.38,-523.848 519.348,-525.923 550,-514 565.623,-507.923 579.65,-495.668 590.206,-484.266"/>
<polygon fill="black" stroke="black" points="592.972,-486.42 596.937,-476.595 587.71,-481.803 592.972,-486.42"/>
</g>
<!-- pricelists -->
<g id="node30" class="node"><title>pricelists</title>
<ellipse fill="lightgrey" stroke="black" cx="322" cy="-19" rx="53.9477" ry="18.3848"/>
<text text-anchor="middle" x="322" y="-15.4" font-family="Times Roman,serif" font-size="14.00">pricelists</text>
</g>
<!-- customers&#45;&gt;pricelists -->
<g id="edge37" class="edge"><title>customers&#45;&gt;pricelists</title>
<path fill="none" stroke="black" d="M381.994,-440.835C368.541,-423.37 349.635,-395.62 341,-368 305.299,-253.813 313.32,-108.501 318.892,-47.7372"/>
<polygon fill="black" stroke="black" points="322.381,-48.022 319.859,-37.7315 315.413,-47.3483 322.381,-48.022"/>
</g>
<!-- accounts info -->
<g id="node32" class="node"><title>accounts info</title>
<ellipse fill="lightgrey" stroke="black" cx="425" cy="-349" rx="75.1594" ry="18.3848"/>
<text text-anchor="middle" x="425" y="-345.4" font-family="Times Roman,serif" font-size="14.00">accounts info</text>
</g>
<!-- customers&#45;&gt;accounts info -->
<g id="edge29" class="edge"><title>customers&#45;&gt;accounts info</title>
<path fill="none" stroke="black" d="M401.75,-440.34C406.134,-423.115 412.71,-397.282 417.751,-377.48"/>
<polygon fill="black" stroke="black" points="421.152,-378.306 420.227,-367.752 414.368,-376.579 421.152,-378.306"/>
</g>
<!-- customers&#45;&gt;contacts -->
<g id="edge31" class="edge"><title>customers&#45;&gt;contacts</title>
<path fill="none" stroke="black" d="M423.275,-442.293C453.471,-423.094 503.105,-391.534 536.166,-370.513"/>
<polygon fill="black" stroke="black" points="538.046,-373.465 544.607,-365.146 534.29,-367.558 538.046,-373.465"/>
</g>
<!-- articules -->
<g id="node36" class="node"><title>articules</title>
<ellipse fill="lightgrey" stroke="black" cx="241" cy="-239" rx="53.033" ry="18.3848"/>
<text text-anchor="middle" x="241" y="-235.4" font-family="Times Roman,serif" font-size="14.00">articules</text>
</g>
<!-- customers&#45;&gt;articules -->
<g id="edge33" class="edge"><title>customers&#45;&gt;articules</title>
<path fill="none" stroke="black" d="M376.493,-441.307C357.211,-423.962 328.346,-396.102 308,-368 284.538,-335.594 264.441,-293.854 252.538,-266.768"/>
<polygon fill="black" stroke="black" points="255.712,-265.288 248.533,-257.496 249.286,-268.064 255.712,-265.288"/>
</g>
<!-- customers&#45;&gt;places -->
<g id="edge35" class="edge"><title>customers&#45;&gt;places</title>
<path fill="none" stroke="black" d="M369.358,-442.293C336.952,-422.707 283.266,-390.26 248.516,-369.257"/>
<polygon fill="black" stroke="black" points="250.052,-366.095 239.683,-363.918 246.431,-372.086 250.052,-366.095"/>
</g>
<!-- products -->
<g id="node7" class="node"><title>products</title>
<ellipse fill="lightgrey" stroke="black" cx="126" cy="-459" rx="53.2379" ry="18.3848"/>
<text text-anchor="middle" x="126" y="-455.4" font-family="Times Roman,serif" font-size="14.00">products</text>
</g>
<!-- services -->
<g id="node27" class="node"><title>services</title>
<ellipse fill="lightgrey" stroke="black" cx="415" cy="-239" rx="50.2046" ry="18.3848"/>
<text text-anchor="middle" x="415" y="-235.4" font-family="Times Roman,serif" font-size="14.00">services</text>
</g>
<!-- products&#45;&gt;services -->
<g id="edge55" class="edge"><title>products&#45;&gt;services</title>
<path fill="none" stroke="black" d="M126.587,-440.193C128.452,-412.512 135.898,-360.764 165,-330 192.644,-300.778 298.405,-269.193 363.185,-251.989"/>
<polygon fill="black" stroke="black" points="364.429,-255.281 373.211,-249.354 362.65,-248.511 364.429,-255.281"/>
</g>
<!-- products&#45;&gt;goods -->
<g id="edge53" class="edge"><title>products&#45;&gt;goods</title>
<path fill="none" stroke="black" d="M118.027,-440.34C110.589,-422.931 99.3936,-396.73 90.8985,-376.848"/>
<polygon fill="black" stroke="black" points="94.0028,-375.205 86.8552,-367.384 87.5658,-377.955 94.0028,-375.205"/>
</g>
<!-- xduck -->
<g id="node8" class="node"><title>xduck</title>
<ellipse fill="lightgrey" stroke="black" cx="455" cy="-569" rx="39.8075" ry="18.3848"/>
<text text-anchor="middle" x="455" y="-565.4" font-family="Times Roman,serif" font-size="14.00">xduck</text>
</g>
<!-- xduck&#45;&gt;stock -->
<g id="edge3" class="edge"><title>xduck&#45;&gt;stock</title>
<path fill="none" stroke="black" d="M427.457,-555.291C387.571,-535.438 313.703,-498.671 269.69,-476.764"/>
<polygon fill="black" stroke="black" points="271.02,-473.517 260.508,-472.194 267.901,-479.784 271.02,-473.517"/>
</g>
<!-- xduck&#45;&gt;users -->
<g id="edge5" class="edge"><title>xduck&#45;&gt;users</title>
<path fill="none" stroke="black" d="M464.578,-550.836C473.855,-533.241 488.04,-506.338 498.663,-486.191"/>
<polygon fill="black" stroke="black" points="501.84,-487.669 503.408,-477.191 495.648,-484.404 501.84,-487.669"/>
</g>
<!-- xduck&#45;&gt;orders -->
<g id="edge7" class="edge"><title>xduck&#45;&gt;orders</title>
<path fill="none" stroke="black" d="M476.879,-553.473C503.614,-534.5 549.013,-502.281 579.252,-480.822"/>
<polygon fill="black" stroke="black" points="581.601,-483.446 587.73,-474.804 577.55,-477.737 581.601,-483.446"/>
</g>
<!-- xduck&#45;&gt;log -->
<g id="edge13" class="edge"><title>xduck&#45;&gt;log</title>
<path fill="none" stroke="black" d="M484.977,-556.533C525.343,-539.569 599.238,-507.895 661,-478 662.813,-477.122 664.668,-476.205 666.534,-475.267"/>
<polygon fill="black" stroke="black" points="668.512,-478.186 675.805,-470.5 665.311,-471.96 668.512,-478.186"/>
</g>
<!-- xduck&#45;&gt;customers -->
<g id="edge9" class="edge"><title>xduck&#45;&gt;customers</title>
<path fill="none" stroke="black" d="M445.422,-550.836C436.201,-533.346 422.13,-506.66 411.528,-486.554"/>
<polygon fill="black" stroke="black" points="414.546,-484.772 406.786,-477.559 408.354,-488.037 414.546,-484.772"/>
</g>
<!-- xduck&#45;&gt;products -->
<g id="edge11" class="edge"><title>xduck&#45;&gt;products</title>
<path fill="none" stroke="black" d="M422.554,-558.152C364.379,-538.701 242.074,-497.809 174.111,-475.086"/>
<polygon fill="black" stroke="black" points="175.086,-471.721 164.493,-471.87 172.867,-478.36 175.086,-471.721"/>
</g>
<!-- leads -->
<g id="node17" class="node"><title>leads</title>
<ellipse fill="lightgrey" stroke="black" cx="814" cy="-239" rx="36.7696" ry="18.3848"/>
<text text-anchor="middle" x="814" y="-235.4" font-family="Times Roman,serif" font-size="14.00">leads</text>
</g>
<!-- activities&#45;&gt;leads -->
<g id="edge15" class="edge"><title>activities&#45;&gt;leads</title>
<path fill="none" stroke="black" d="M789.919,-330.34C794.488,-313.011 801.354,-286.969 806.586,-267.12"/>
<polygon fill="black" stroke="black" points="809.988,-267.946 809.153,-257.384 803.22,-266.162 809.988,-267.946"/>
</g>
<!-- sale orders -->
<g id="node19" class="node"><title>sale orders</title>
<ellipse fill="lightgrey" stroke="black" cx="934" cy="-239" rx="65.0538" ry="18.3848"/>
<text text-anchor="middle" x="934" y="-235.4" font-family="Times Roman,serif" font-size="14.00">sale orders</text>
</g>
<!-- activities&#45;&gt;sale orders -->
<g id="edge17" class="edge"><title>activities&#45;&gt;sale orders</title>
<path fill="none" stroke="black" d="M807.955,-332.054C833.108,-313.484 873.636,-283.564 901.924,-262.68"/>
<polygon fill="black" stroke="black" points="904.314,-265.267 910.28,-256.512 900.156,-259.635 904.314,-265.267"/>
</g>
<!-- payments -->
<g id="node21" class="node"><title>payments</title>
<ellipse fill="lightgrey" stroke="black" cx="1076" cy="-239" rx="58.8978" ry="18.3848"/>
<text text-anchor="middle" x="1076" y="-235.4" font-family="Times Roman,serif" font-size="14.00">payments</text>
</g>
<!-- activities&#45;&gt;payments -->
<g id="edge19" class="edge"><title>activities&#45;&gt;payments</title>
<path fill="none" stroke="black" d="M821.855,-335.068C874.336,-315.231 970.628,-278.831 1028.43,-256.981"/>
<polygon fill="black" stroke="black" points="1029.95,-260.151 1038.06,-253.341 1027.47,-253.603 1029.95,-260.151"/>
</g>
<!-- abuses -->
<g id="node23" class="node"><title>abuses</title>
<ellipse fill="lightgrey" stroke="black" cx="528" cy="-239" rx="44.7575" ry="18.3848"/>
<text text-anchor="middle" x="528" y="-235.4" font-family="Times Roman,serif" font-size="14.00">abuses</text>
</g>
<!-- activities&#45;&gt;abuses -->
<g id="edge21" class="edge"><title>activities&#45;&gt;abuses</title>
<path fill="none" stroke="black" d="M750.872,-334.393C703.796,-314.243 619.057,-277.974 568.727,-256.432"/>
<polygon fill="black" stroke="black" points="570.014,-253.176 559.444,-252.458 567.26,-259.611 570.014,-253.176"/>
</g>
<!-- delivery orders -->
<g id="node25" class="node"><title>delivery orders</title>
<ellipse fill="lightgrey" stroke="black" cx="675" cy="-239" rx="84.1457" ry="18.3848"/>
<text text-anchor="middle" x="675" y="-235.4" font-family="Times Roman,serif" font-size="14.00">delivery orders</text>
</g>
<!-- activities&#45;&gt;delivery orders -->
<g id="edge23" class="edge"><title>activities&#45;&gt;delivery orders</title>
<path fill="none" stroke="black" d="M767.327,-331.327C749.261,-313.261 721.022,-285.022 700.529,-264.529"/>
<polygon fill="black" stroke="black" points="702.909,-261.959 693.363,-257.363 697.959,-266.909 702.909,-261.959"/>
</g>
<!-- activities&#45;&gt;services -->
<g id="edge25" class="edge"><title>activities&#45;&gt;services</title>
<path fill="none" stroke="black" d="M743.696,-336.705C736.147,-334.468 728.339,-332.159 721,-330 611.302,-297.728 583.321,-291.529 474,-258 470.23,-256.844 466.331,-255.629 462.417,-254.397"/>
<polygon fill="black" stroke="black" points="463.31,-251.009 452.72,-251.32 461.193,-257.681 463.31,-251.009"/>
</g>
<!-- assembling -->
<g id="node28" class="node"><title>assembling</title>
<ellipse fill="lightgrey" stroke="black" cx="415" cy="-129" rx="65.0538" ry="18.3848"/>
<text text-anchor="middle" x="415" y="-125.4" font-family="Times Roman,serif" font-size="14.00">assembling</text>
</g>
<!-- services&#45;&gt;assembling -->
<g id="edge59" class="edge"><title>services&#45;&gt;assembling</title>
<path fill="none" stroke="black" d="M415,-220.34C415,-203.194 415,-177.519 415,-157.753"/>
<polygon fill="black" stroke="black" points="418.5,-157.752 415,-147.752 411.5,-157.752 418.5,-157.752"/>
</g>
<!-- shipping -->
<g id="node53" class="node"><title>shipping</title>
<ellipse fill="lightgrey" stroke="black" cx="550" cy="-129" rx="51.8276" ry="18.3848"/>
<text text-anchor="middle" x="550" y="-125.4" font-family="Times Roman,serif" font-size="14.00">shipping</text>
</g>
<!-- services&#45;&gt;shipping -->
<g id="edge57" class="edge"><title>services&#45;&gt;shipping</title>
<path fill="none" stroke="black" d="M435.798,-222.054C458.623,-203.456 495.422,-173.471 521.057,-152.583"/>
<polygon fill="black" stroke="black" points="523.415,-155.177 528.956,-146.147 518.993,-149.75 523.415,-155.177"/>
</g>
<!-- assembling&#45;&gt;pricelists -->
<g id="edge27" class="edge"><title>assembling&#45;&gt;pricelists</title>
<path fill="none" stroke="black" d="M399.643,-110.836C384.34,-92.7352 360.708,-64.7837 343.534,-44.4708"/>
<polygon fill="black" stroke="black" points="346.2,-42.2031 337.071,-36.8263 340.855,-46.7225 346.2,-42.2031"/>
</g>
<!-- goods&#45;&gt;pricelists -->
<g id="edge47" class="edge"><title>goods&#45;&gt;pricelists</title>
<path fill="none" stroke="black" d="M92.0647,-331.258C132.35,-276.549 254.806,-110.25 302.601,-45.3445"/>
<polygon fill="black" stroke="black" points="305.462,-47.3622 308.573,-37.2345 299.825,-43.2115 305.462,-47.3622"/>
</g>
<!-- goods&#45;&gt;articules -->
<g id="edge45" class="edge"><title>goods&#45;&gt;articules</title>
<path fill="none" stroke="black" d="M101.525,-333.705C129.18,-314.927 176.308,-282.927 208.037,-261.382"/>
<polygon fill="black" stroke="black" points="210.243,-264.115 216.55,-255.602 206.31,-258.324 210.243,-264.115"/>
</g>
<!-- BOMs -->
<g id="node43" class="node"><title>BOMs</title>
<ellipse fill="lightgrey" stroke="black" cx="93" cy="-239" rx="39.0967" ry="18.3848"/>
<text text-anchor="middle" x="93" y="-235.4" font-family="Times Roman,serif" font-size="14.00">BOMs</text>
</g>
<!-- goods&#45;&gt;BOMs -->
<g id="edge41" class="edge"><title>goods&#45;&gt;BOMs</title>
<path fill="none" stroke="black" d="M81.3749,-330.34C83.5571,-313.194 86.8248,-287.519 89.3406,-267.753"/>
<polygon fill="black" stroke="black" points="92.8228,-268.113 90.6134,-257.752 85.8788,-267.23 92.8228,-268.113"/>
</g>
<!-- packings -->
<g id="node45" class="node"><title>packings</title>
<ellipse fill="lightgrey" stroke="black" cx="53" cy="-129" rx="53.2379" ry="18.3848"/>
<text text-anchor="middle" x="53" y="-125.4" font-family="Times Roman,serif" font-size="14.00">packings</text>
</g>
<!-- goods&#45;&gt;packings -->
<g id="edge43" class="edge"><title>goods&#45;&gt;packings</title>
<path fill="none" stroke="black" d="M69.9504,-330.732C61.5794,-312.74 49.7387,-284.222 45,-258 38.8274,-223.843 43.0353,-183.865 47.3326,-157.571"/>
<polygon fill="black" stroke="black" points="50.8129,-157.987 49.087,-147.534 43.9175,-156.782 50.8129,-157.987"/>
</g>
<!-- packings&#45;&gt;pricelists -->
<g id="edge51" class="edge"><title>packings&#45;&gt;pricelists</title>
<path fill="none" stroke="black" d="M87.6163,-114.845C136.108,-95.0154 224.282,-58.9591 277.565,-37.1705"/>
<polygon fill="black" stroke="black" points="279.159,-40.2999 287.09,-33.2753 276.51,-33.8207 279.159,-40.2999"/>
</g>
<!-- shipping&#45;&gt;pricelists -->
<g id="edge65" class="edge"><title>shipping&#45;&gt;pricelists</title>
<path fill="none" stroke="black" d="M518.776,-113.936C478.241,-94.3795 407.414,-60.2085 362.703,-38.6374"/>
<polygon fill="black" stroke="black" points="364.106,-35.4285 353.579,-34.2354 361.065,-41.7331 364.106,-35.4285"/>
</g>
</g>
</svg>
